<mxfile host="app.diagrams.net" modified="2024-03-29T11:59:40.377Z" agent="Mozilla/5.0 (Macintosh; Intel Mac OS X 10_15_7) AppleWebKit/537.36 (KHTML, like Gecko) Chrome/123.0.0.0 Safari/537.36" etag="xKzlRCXBpysIQIjOQHpF" version="24.2.0" type="github">
  <diagram name="Aquisição" id="ENa7H910YA-1PAjf6cWz">
    <mxGraphModel dx="2993" dy="551" grid="0" gridSize="10" guides="1" tooltips="1" connect="1" arrows="1" fold="1" page="0" pageScale="1" pageWidth="827" pageHeight="1169" math="0" shadow="0">
      <root>
        <mxCell id="0" />
        <mxCell id="1" parent="0" />
        <mxCell id="Wp_WkxRwhoHhFkrrZC_Q-28" value="Conta + Cartão de Débito" style="swimlane;horizontal=0;whiteSpace=wrap;html=1;" parent="1" vertex="1">
          <mxGeometry x="-903" y="539" width="1977" height="517" as="geometry">
            <mxRectangle x="-886" y="467" width="32" height="517" as="alternateBounds" />
          </mxGeometry>
        </mxCell>
        <mxCell id="1FoCxjb-TiXzHSirk8Zt-49" value="customer-service [api]" style="rounded=0;whiteSpace=wrap;html=1;" parent="Wp_WkxRwhoHhFkrrZC_Q-28" vertex="1">
          <mxGeometry x="910" y="230.31" width="175" height="60" as="geometry" />
        </mxCell>
        <mxCell id="Wp_WkxRwhoHhFkrrZC_Q-1" value="account-service [api]" style="rounded=0;whiteSpace=wrap;html=1;glass=0;" parent="Wp_WkxRwhoHhFkrrZC_Q-28" vertex="1">
          <mxGeometry x="1341" y="230.31" width="147" height="60" as="geometry" />
        </mxCell>
        <mxCell id="Wp_WkxRwhoHhFkrrZC_Q-2" style="edgeStyle=orthogonalEdgeStyle;rounded=0;orthogonalLoop=1;jettySize=auto;html=1;exitX=1;exitY=0.5;exitDx=0;exitDy=0;" parent="Wp_WkxRwhoHhFkrrZC_Q-28" source="oA3a6A8rgNRffjd3Hwyr-4" target="Wp_WkxRwhoHhFkrrZC_Q-1" edge="1">
          <mxGeometry relative="1" as="geometry" />
        </mxCell>
        <mxCell id="Wp_WkxRwhoHhFkrrZC_Q-5" value="POST /v1/accounts" style="edgeLabel;html=1;align=center;verticalAlign=middle;resizable=0;points=[];" parent="Wp_WkxRwhoHhFkrrZC_Q-2" vertex="1" connectable="0">
          <mxGeometry x="-0.1469" relative="1" as="geometry">
            <mxPoint x="-27" as="offset" />
          </mxGeometry>
        </mxCell>
        <mxCell id="Wp_WkxRwhoHhFkrrZC_Q-3" value="card-service [api]" style="rounded=0;whiteSpace=wrap;html=1;" parent="Wp_WkxRwhoHhFkrrZC_Q-28" vertex="1">
          <mxGeometry x="1334" y="398" width="161" height="60" as="geometry" />
        </mxCell>
        <mxCell id="Wp_WkxRwhoHhFkrrZC_Q-4" style="edgeStyle=orthogonalEdgeStyle;rounded=0;orthogonalLoop=1;jettySize=auto;html=1;" parent="Wp_WkxRwhoHhFkrrZC_Q-28" source="Wp_WkxRwhoHhFkrrZC_Q-1" target="Wp_WkxRwhoHhFkrrZC_Q-3" edge="1">
          <mxGeometry relative="1" as="geometry" />
        </mxCell>
        <mxCell id="Wp_WkxRwhoHhFkrrZC_Q-6" value="POST /v1/cards" style="edgeLabel;html=1;align=center;verticalAlign=middle;resizable=0;points=[];" parent="Wp_WkxRwhoHhFkrrZC_Q-4" vertex="1" connectable="0">
          <mxGeometry x="-0.1575" relative="1" as="geometry">
            <mxPoint as="offset" />
          </mxGeometry>
        </mxCell>
        <mxCell id="oA3a6A8rgNRffjd3Hwyr-6" style="edgeStyle=orthogonalEdgeStyle;rounded=0;orthogonalLoop=1;jettySize=auto;html=1;" edge="1" parent="Wp_WkxRwhoHhFkrrZC_Q-28" source="oA3a6A8rgNRffjd3Hwyr-2" target="oA3a6A8rgNRffjd3Hwyr-3">
          <mxGeometry relative="1" as="geometry" />
        </mxCell>
        <mxCell id="oA3a6A8rgNRffjd3Hwyr-2" value="customer-enrollment-service [api]" style="rounded=0;whiteSpace=wrap;html=1;" vertex="1" parent="Wp_WkxRwhoHhFkrrZC_Q-28">
          <mxGeometry x="349" y="79.31" width="232" height="60" as="geometry" />
        </mxCell>
        <mxCell id="oA3a6A8rgNRffjd3Hwyr-7" style="edgeStyle=orthogonalEdgeStyle;rounded=0;orthogonalLoop=1;jettySize=auto;html=1;entryX=0;entryY=0.5;entryDx=0;entryDy=0;dashed=1;" edge="1" parent="Wp_WkxRwhoHhFkrrZC_Q-28" source="oA3a6A8rgNRffjd3Hwyr-3" target="oA3a6A8rgNRffjd3Hwyr-4">
          <mxGeometry relative="1" as="geometry" />
        </mxCell>
        <mxCell id="oA3a6A8rgNRffjd3Hwyr-3" value="" style="shape=cylinder3;whiteSpace=wrap;html=1;boundedLbl=1;backgroundOutline=1;size=15;rotation=90;portConstraintRotation=0;metaEdit=0;" vertex="1" parent="Wp_WkxRwhoHhFkrrZC_Q-28">
          <mxGeometry x="717" y="65.69" width="26.82" height="87.25" as="geometry" />
        </mxCell>
        <mxCell id="oA3a6A8rgNRffjd3Hwyr-5" value="POST /v1/customers" style="edgeStyle=orthogonalEdgeStyle;rounded=0;orthogonalLoop=1;jettySize=auto;html=1;entryX=0.5;entryY=0;entryDx=0;entryDy=0;" edge="1" parent="Wp_WkxRwhoHhFkrrZC_Q-28" source="oA3a6A8rgNRffjd3Hwyr-4" target="1FoCxjb-TiXzHSirk8Zt-49">
          <mxGeometry relative="1" as="geometry" />
        </mxCell>
        <mxCell id="oA3a6A8rgNRffjd3Hwyr-4" value="customer-enrollment-service [worker]" style="rounded=0;whiteSpace=wrap;html=1;" vertex="1" parent="Wp_WkxRwhoHhFkrrZC_Q-28">
          <mxGeometry x="881.5" y="79.31" width="232" height="60" as="geometry" />
        </mxCell>
        <mxCell id="oA3a6A8rgNRffjd3Hwyr-9" style="edgeStyle=orthogonalEdgeStyle;rounded=0;orthogonalLoop=1;jettySize=auto;html=1;entryX=0;entryY=0.5;entryDx=0;entryDy=0;" edge="1" parent="Wp_WkxRwhoHhFkrrZC_Q-28" source="oA3a6A8rgNRffjd3Hwyr-8" target="oA3a6A8rgNRffjd3Hwyr-2">
          <mxGeometry relative="1" as="geometry">
            <Array as="points">
              <mxPoint x="255" y="109" />
              <mxPoint x="255" y="109" />
            </Array>
          </mxGeometry>
        </mxCell>
        <mxCell id="oA3a6A8rgNRffjd3Hwyr-10" value="POST /v1/customer-enrollments" style="edgeLabel;html=1;align=center;verticalAlign=middle;resizable=0;points=[];" vertex="1" connectable="0" parent="oA3a6A8rgNRffjd3Hwyr-9">
          <mxGeometry x="-0.1392" y="1" relative="1" as="geometry">
            <mxPoint x="5" y="1" as="offset" />
          </mxGeometry>
        </mxCell>
        <mxCell id="oA3a6A8rgNRffjd3Hwyr-8" value="client" style="ellipse;whiteSpace=wrap;html=1;aspect=fixed;" vertex="1" parent="Wp_WkxRwhoHhFkrrZC_Q-28">
          <mxGeometry x="52" y="75.36999999999999" width="67.87" height="67.87" as="geometry" />
        </mxCell>
        <mxCell id="oA3a6A8rgNRffjd3Hwyr-12" value="credit-service [worker]" style="rounded=0;whiteSpace=wrap;html=1;" vertex="1" parent="Wp_WkxRwhoHhFkrrZC_Q-28">
          <mxGeometry x="1765" y="230.31" width="175" height="60" as="geometry" />
        </mxCell>
        <mxCell id="oA3a6A8rgNRffjd3Hwyr-17" style="edgeStyle=orthogonalEdgeStyle;rounded=0;orthogonalLoop=1;jettySize=auto;html=1;entryX=0;entryY=0.5;entryDx=0;entryDy=0;dashed=1;" edge="1" parent="Wp_WkxRwhoHhFkrrZC_Q-28" source="oA3a6A8rgNRffjd3Hwyr-15" target="oA3a6A8rgNRffjd3Hwyr-12">
          <mxGeometry relative="1" as="geometry" />
        </mxCell>
        <mxCell id="oA3a6A8rgNRffjd3Hwyr-15" value="" style="shape=cylinder3;whiteSpace=wrap;html=1;boundedLbl=1;backgroundOutline=1;size=15;rotation=90;portConstraintRotation=0;metaEdit=0;shadow=0;" vertex="1" parent="Wp_WkxRwhoHhFkrrZC_Q-28">
          <mxGeometry x="1613" y="216.68000000000012" width="26.82" height="87.25" as="geometry" />
        </mxCell>
        <mxCell id="oA3a6A8rgNRffjd3Hwyr-16" style="edgeStyle=orthogonalEdgeStyle;rounded=0;orthogonalLoop=1;jettySize=auto;html=1;entryX=0.5;entryY=1;entryDx=0;entryDy=0;entryPerimeter=0;" edge="1" parent="Wp_WkxRwhoHhFkrrZC_Q-28" source="Wp_WkxRwhoHhFkrrZC_Q-1" target="oA3a6A8rgNRffjd3Hwyr-15">
          <mxGeometry relative="1" as="geometry" />
        </mxCell>
      </root>
    </mxGraphModel>
  </diagram>
</mxfile>
